<?xml version="1.0" encoding="utf-8"?>
<!-- Generator: Adobe Illustrator 16.0.0, SVG Export Plug-In . SVG Version: 6.00 Build 0)  -->
<!DOCTYPE svg PUBLIC "-//W3C//DTD SVG 1.1//EN" "http://www.w3.org/Graphics/SVG/1.1/DTD/svg11.dtd">
<svg version="1.1" id="Layer_1" xmlns="http://www.w3.org/2000/svg" xmlns:xlink="http://www.w3.org/1999/xlink" x="0px" y="0px"
	 width="16px" height="15.875px" viewBox="121 120.062 16 15.875" enable-background="new 121 120.062 16 15.875"
	 xml:space="preserve">
<g id="Cog">
	<path fill="#FFFFFF" d="M136.326,125.371c-0.141-0.183-0.441-0.247-0.651-0.297c-0.45-0.107-0.918-0.161-1.378-0.188
		c-0.166-0.281-1.121-1.462-1.359-1.684c0.073-0.456,0.122-0.923,0.112-1.384c-0.005-0.218-0.001-0.524-0.15-0.702
		c-0.048-0.058-1.128-0.568-1.216-0.57c-0.231-0.003-0.488,0.193-0.66,0.326c-0.363,0.284-0.737,0.617-1.047,0.961
		c-0.321-0.045-1.923-0.034-2.244,0.014c-0.312-0.341-0.483-0.674-0.85-0.954c-0.173-0.132-0.41-0.325-0.642-0.321
		c-0.076,0.002-1.137,0.513-1.191,0.58c-0.147,0.178-0.143,0.485-0.146,0.701c-0.005,0.463,0.047,0.93,0.123,1.386
		c-0.236,0.224-1.175,1.417-1.339,1.7c-0.46,0.029-0.926,0.087-1.374,0.198c-0.211,0.052-0.51,0.118-0.65,0.302
		c-0.046,0.06-0.308,1.208-0.29,1.293c0.047,0.227,0.291,0.413,0.459,0.55c0.357,0.293,0.756,0.543,1.159,0.768
		c0.027,0.325,0.375,1.803,0.493,2.107c-0.263,0.379-0.509,0.777-0.701,1.198c-0.09,0.197-0.226,0.472-0.17,0.696
		c0.019,0.074,0.754,0.994,0.831,1.033c0.206,0.104,0.505,0.03,0.716-0.016c0.451-0.097,0.896-0.252,1.323-0.429
		c0.271,0.183,1.644,0.832,1.954,0.929c0.132,0.441,0.291,0.883,0.5,1.295c0.099,0.193,0.229,0.471,0.438,0.568
		c0.069,0.03,1.248,0.03,1.327-0.006c0.209-0.098,0.339-0.376,0.434-0.569c0.206-0.415,0.361-0.858,0.49-1.302
		c0.311-0.099,1.675-0.767,1.943-0.95c0.428,0.173,0.873,0.323,1.325,0.418c0.213,0.044,0.51,0.114,0.717,0.011
		c0.068-0.035,0.802-0.956,0.822-1.039c0.056-0.226-0.082-0.499-0.174-0.695c-0.195-0.419-0.445-0.818-0.713-1.195
		c0.117-0.305,0.445-1.787,0.471-2.112c0.401-0.227,0.797-0.48,1.151-0.775c0.167-0.139,0.408-0.328,0.455-0.555
		C136.642,126.587,136.38,125.439,136.326,125.371z M132.737,129.973c-0.521,1.002-1.412,1.669-2.466,2.001
		c-1.052,0.332-2.169,0.142-3.225-0.408c-1.057-0.55-1.791-1.476-2.123-2.528c-0.332-1.052-0.263-2.231,0.287-3.288
		s1.476-1.789,2.527-2.121c1.053-0.333,2.231-0.261,3.288,0.289c0.194,0.101,0.379,0.216,0.551,0.342
		c0.423,0.308,0.771,0.679,1.054,1.107l-1.449,0.956c-0.109-0.173-0.255-0.352-0.418-0.501c-0.155-0.146-0.335-0.271-0.533-0.375
		c-0.635-0.331-1.344-0.368-1.976-0.169c-0.631,0.2-1.191,0.647-1.521,1.281c-0.33,0.634-0.38,1.356-0.181,1.988
		s0.624,1.218,1.258,1.547c0.634,0.33,1.31,0.432,1.941,0.233c0.632-0.199,1.154-0.574,1.454-1.152l-0.94-0.487l2.671-1.018
		l0.721,2.78L132.737,129.973z"/>
	<path display="none" fill="none" stroke="#FFFFFF" stroke-width="0.4964" stroke-miterlimit="10" d="M128.255,125.278
		c0.632-0.199,1.341-0.162,1.976,0.169c0.198,0.103,0.378,0.229,0.533,0.375c0.162,0.15,0.309,0.328,0.418,0.501l1.449-0.956
		c-0.282-0.429-0.631-0.799-1.054-1.107c-0.172-0.126-0.356-0.241-0.551-0.342c-1.057-0.55-2.235-0.622-3.288-0.29
		c-1.053,0.333-1.978,1.065-2.527,2.122s-0.619,2.235-0.287,3.288c0.332,1.053,1.066,1.979,2.123,2.528
		c1.056,0.55,2.173,0.74,3.225,0.408c1.054-0.332,1.944-0.999,2.466-2.001l0.921,0.478l-0.721-2.78l-2.671,1.018l0.94,0.487
		c-0.3,0.578-0.822,0.953-1.454,1.152c-0.632,0.198-1.308,0.097-1.941-0.233c-0.634-0.329-1.059-0.915-1.258-1.547
		s-0.149-1.354,0.181-1.988C127.063,125.925,127.624,125.478,128.255,125.278z"/>
	<path display="none" fill="#FFFFFF" d="M129.344,135.708c-0.349,0.007-0.953,0.012-1.074-0.044
		c-0.282-0.129-0.435-0.432-0.546-0.654l-0.017-0.03c-0.175-0.346-0.332-0.745-0.478-1.214c-0.422-0.164-1.376-0.617-1.768-0.839
		c-0.456,0.183-0.865,0.311-1.246,0.394l-0.032,0.007c-0.128,0.027-0.288,0.063-0.45,0.066c-0.158,0.004-0.29-0.022-0.404-0.08
		c-0.144-0.072-0.928-1.05-0.965-1.202c-0.075-0.299,0.066-0.606,0.17-0.831l0.016-0.034c0.161-0.354,0.375-0.726,0.649-1.132
		c-0.133-0.432-0.374-1.46-0.445-1.904c-0.426-0.242-0.782-0.482-1.085-0.73l-0.028-0.022c-0.192-0.157-0.456-0.372-0.52-0.675
		c-0.032-0.156,0.242-1.376,0.337-1.502c0.189-0.247,0.52-0.328,0.762-0.387l0.032-0.008c0.379-0.094,0.802-0.159,1.29-0.197
		c0.254-0.374,0.908-1.203,1.211-1.536c-0.076-0.485-0.111-0.913-0.106-1.303l0.001-0.037c0.002-0.248,0.006-0.588,0.203-0.827
		c0.1-0.122,1.227-0.669,1.385-0.673c0.311-0.006,0.581,0.201,0.777,0.354l0.027,0.02c0.261,0.2,0.432,0.422,0.597,0.637
		c0.064,0.083,0.13,0.168,0.202,0.252c0.164-0.012,0.39-0.02,0.573-0.023c0.439-0.01,1.117-0.012,1.462,0.011
		c0.279-0.299,0.619-0.606,0.991-0.896c0.18-0.139,0.479-0.372,0.797-0.379h0.026c0.164,0.003,1.311,0.542,1.411,0.664
		c0.197,0.238,0.203,0.578,0.208,0.827l0.001,0.035c0.007,0.387-0.023,0.814-0.096,1.301c0.308,0.332,0.972,1.153,1.228,1.521
		c0.49,0.035,0.914,0.096,1.294,0.187l0.034,0.008c0.242,0.058,0.574,0.137,0.763,0.383c0.098,0.127,0.38,1.347,0.348,1.5
		c-0.063,0.304-0.324,0.52-0.516,0.678l-0.027,0.022c-0.299,0.25-0.652,0.491-1.077,0.738c-0.067,0.446-0.295,1.477-0.424,1.909
		c0.277,0.402,0.495,0.772,0.66,1.127l0.016,0.031c0.104,0.226,0.25,0.533,0.176,0.836c-0.038,0.153-0.816,1.136-0.956,1.207
		c-0.102,0.052-0.222,0.079-0.357,0.082c-0.178,0.004-0.354-0.033-0.497-0.063l-0.032-0.007c-0.382-0.079-0.79-0.204-1.247-0.382
		c-0.393,0.227-1.341,0.689-1.757,0.858c-0.142,0.47-0.297,0.869-0.471,1.22l-0.016,0.032c-0.11,0.223-0.26,0.527-0.542,0.657
		C129.765,135.681,129.727,135.698,129.344,135.708z M128.462,135.183c0.12,0.011,0.527,0.017,0.87,0.008
		c0.172-0.003,0.251-0.009,0.285-0.012c0.107-0.068,0.207-0.271,0.274-0.406l0.015-0.031c0.175-0.354,0.331-0.766,0.474-1.259
		l0.039-0.133l0.131-0.042c0.279-0.089,1.629-0.749,1.877-0.916l0.113-0.078l0.128,0.052c0.477,0.191,0.896,0.323,1.28,0.402
		l0.035,0.007c0.122,0.026,0.26,0.056,0.378,0.054c0.045-0.001,0.082-0.007,0.111-0.017c0.134-0.139,0.62-0.752,0.717-0.904
		c0.014-0.127-0.082-0.331-0.146-0.469l-0.016-0.032c-0.168-0.357-0.392-0.735-0.688-1.154l-0.08-0.112l0.05-0.129
		c0.104-0.273,0.431-1.742,0.452-2.039l0.011-0.137l0.12-0.069c0.449-0.254,0.813-0.498,1.114-0.75l0.029-0.022
		c0.115-0.097,0.287-0.239,0.331-0.36c-0.024-0.19-0.202-0.953-0.261-1.124c-0.09-0.089-0.309-0.142-0.456-0.177l-0.035-0.008
		c-0.383-0.092-0.819-0.151-1.333-0.182l-0.138-0.008l-0.07-0.118c-0.147-0.252-1.092-1.422-1.311-1.625l-0.102-0.094l0.022-0.136
		c0.08-0.51,0.116-0.948,0.108-1.339l-0.001-0.036c-0.002-0.151-0.007-0.375-0.074-0.484c-0.166-0.1-0.885-0.437-1.059-0.498
		c-0.152,0.019-0.369,0.188-0.475,0.27c-0.389,0.302-0.739,0.624-1.015,0.93l-0.092,0.103l-0.136-0.02
		c-0.175-0.024-0.885-0.034-1.518-0.019c-0.319,0.007-0.564,0.019-0.654,0.033l-0.136,0.02l-0.093-0.101
		c-0.12-0.132-0.218-0.259-0.313-0.382c-0.158-0.205-0.296-0.383-0.503-0.541l-0.027-0.021c-0.12-0.093-0.298-0.229-0.426-0.245
		c-0.181,0.067-0.884,0.409-1.037,0.504c-0.068,0.108-0.07,0.333-0.072,0.483v0.037c-0.005,0.393,0.035,0.832,0.12,1.34l0.022,0.136
		l-0.101,0.094c-0.211,0.201-1.142,1.382-1.292,1.641l-0.069,0.119l-0.138,0.01c-0.513,0.034-0.947,0.097-1.329,0.191l-0.034,0.008
		c-0.146,0.037-0.365,0.09-0.456,0.181c-0.06,0.182-0.232,0.946-0.254,1.126c0.043,0.119,0.217,0.261,0.334,0.356l0.029,0.024
		c0.306,0.25,0.673,0.492,1.121,0.741l0.121,0.066l0.012,0.138c0.024,0.291,0.367,1.755,0.476,2.033l0.051,0.129l-0.079,0.111
		c-0.293,0.423-0.515,0.802-0.678,1.16l-0.017,0.034c-0.063,0.137-0.155,0.34-0.143,0.466c0.104,0.16,0.595,0.771,0.723,0.9
		c0.034,0.012,0.082,0.018,0.139,0.017c0.112-0.003,0.239-0.031,0.352-0.055l0.033-0.008c0.385-0.083,0.803-0.219,1.279-0.415
		l0.128-0.052l0.114,0.077c0.243,0.161,1.601,0.806,1.887,0.895l0.132,0.04l0.039,0.133c0.148,0.493,0.307,0.903,0.483,1.252
		l0.016,0.033C128.253,134.913,128.354,135.112,128.462,135.183z"/>
</g>
</svg>
